PathFileType	4	(X/Y/Z)	Patient4_TMGait_0pt3_03_right_07.trc.trc
DataRate	CameraRate	NumFrames	NumMarkers	Units	OrigDataRate	OrigDataStartFrame	OrigNumFrames
50.724637681159	50.724637681159	4	33	mm	50.724637681159	18	       141
Frame#	Time	Sacral			L.Shoulder			Chest			R.Shoulder			Neck			R.ASIS			L.ASIS			R.Thigh.Superior			R.Thigh.Lateral			R.Thigh.Inferior			R.Patella			L.Thigh.Superior			L.Thigh.Lateral			L.Thigh.Inferior			L.Patella			L.Shank.Superior			L.Shank.Lateral			L.Shank.Inferior			R.Shank.Superior			R.Shank.Lateral			R.Shank.Inferior			R.Heel			R.Midfoot.Superior			R.Midfoot.Lateral			R.Toe			L.Heel			L.Midfoot.Lateral			L.Midfoot.Superior			L.Toe			L.Elbow			L.Wrist			R.Elbow			R.Wrist			
		X1	Y1	Z1	X2	Y2	Z2	X3	Y3	Z3	X4	Y4	Z4	X5	Y5	Z5	X6	Y6	Z6	X7	Y7	Z7	X8	Y8	Z8	X9	Y9	Z9	X10	Y10	Z10	X11	Y11	Z11	X12	Y12	Z12	X13	Y13	Z13	X14	Y14	Z14	X15	Y15	Z15	X16	Y16	Z16	X17	Y17	Z17	X18	Y18	Z18	X19	Y19	Z19	X20	Y20	Z20	X21	Y21	Z21	X22	Y22	Z22	X23	Y23	Z23	X24	Y24	Z24	X25	Y25	Z25	X26	Y26	Z26	X27	Y27	Z27	X28	Y28	Z28	X29	Y29	Z29	X30	Y30	Z30	X31	Y31	Z31	X32	Y32	Z32	X33	Y33	Z33	

18	13.525142857143	732.273145241721	1014.351183780382	389.385530560665	981.746658004432	1432.313772226762	250.624634504708	1033.021372600216	1360.150516368066	432.195803594156	911.423219139178	1441.369462755547	577.202249936937	924.641118653877	1494.937155244437	400.980836265383	930.833541169403	947.622851798682	554.443274095896	973.476471095523	955.435813334220	282.987632857802	1005.995082017615	772.365631946469	534.322379613179	953.677710993671	654.206314192189	603.621956347772	1045.410319818993	610.314384254310	531.653289690313	1070.737310623230	518.847559188731	556.876854668900	987.977433157787	732.369780340464	322.572658617683	896.223722136440	623.241933695046	251.791095380670	959.305992813010	540.031384747524	329.606547525389	950.018656901809	470.169206139490	338.884606670636	910.841252065437	402.498875926337	327.328425498359	810.137649918806	301.939865909058	269.746166324770	833.675126828368	186.232229791517	345.584213709457	1032.546658140499	431.362595744757	565.575208842127	947.344003518859	339.891243010478	626.785718914723	993.029340389200	237.789266854385	581.020295776063	856.174552161144	76.840340419086	552.238865220632	1026.817739367114	119.663217656428	596.415508170625	937.341719838103	58.290631321714	626.375229387884	1142.107547470249	64.094016172369	622.899332855703	683.331616982187	41.465951457093	379.568455691688	760.165235581279	36.563303381556	302.554794206943	844.527551535065	95.684265945928	332.606121494788	972.125733514294	39.238997716410	306.903090086556	1110.140190926555	1133.148468834386	101.078052710117	1360.172703060733	1062.223075314922	130.030929355012	738.644504142637	1131.094997162953	651.079923950442	712.202298160157	871.678882049619	667.931481995644	
19	13.544857142857	732.325619422445	1014.200151102047	390.668972918721	984.181659163753	1431.422539584695	254.147312401906	1033.309674774685	1359.427056258957	436.369149004883	910.306705341365	1441.452657583323	579.734659728107	925.384858545158	1494.341519679786	403.716759831951	928.883063929088	946.905491974034	558.156572138890	974.405454687344	954.687272663868	286.978037657613	1001.845831807066	769.849570968545	539.048358816769	947.047731530816	652.260710381750	607.336259502298	1038.676864439462	607.950769664489	535.645643112097	1064.396451633947	519.833351528894	559.667005631900	985.486684447225	730.956351208155	325.984161548721	892.877281075199	623.258766176727	253.228156504589	953.943060866541	538.962081419688	331.130818786740	943.481460802570	469.518203451625	340.023248424062	904.731058198407	402.220518191973	328.094181686159	804.183238846949	301.757327356917	270.059504161653	827.500252726174	185.963493967073	345.850381331951	1032.377138974791	431.450329120646	569.021865993112	954.579900100605	333.704023287931	631.754569354950	1007.524050099693	234.545224863757	585.720614741156	881.855039555405	63.757784845730	558.830702498336	1050.557839678728	117.823596123637	600.962715763557	965.450746150507	50.019527343434	631.734890397291	1170.463764026941	69.630079912901	625.764551707946	677.290881478213	41.120214147222	379.441485036337	754.109915325689	36.354511314953	302.459998298785	838.379680618997	95.587044380692	332.668877213228	966.071807715509	39.289501447296	306.987809937415	1118.212569621627	1136.266095593449	104.431490745166	1370.675914004567	1076.264947181576	135.297181692063	735.173108767427	1132.338916936924	651.475510745065	710.113000139167	872.499241782137	667.035437587805	
20	13.564571428571	732.633330638008	1013.417542447393	392.538876477300	986.203465959361	1430.109152590117	257.984223835362	1033.624611708668	1358.286420441101	440.715180832244	909.491644586722	1440.963508152293	582.743151435073	926.063010658915	1493.288278397702	406.868690396401	927.479928590340	945.563105032572	562.026263248189	975.466901692943	953.556246226770	291.089205654413	998.392526078344	766.780029218277	543.833199309006	941.108452053345	649.672305925026	610.965228952730	1032.753359140853	605.126481284621	539.543142850332	1058.434198845913	519.924049699681	562.242986503692	983.482327303005	729.330761406697	329.450030193203	890.041857989348	622.992378795248	254.872281910162	949.189739753887	537.690077024697	332.776141225967	937.588971127931	468.614564250628	341.304288092098	899.150237104922	401.656744300564	329.015769986261	798.577745510153	301.465993007916	270.488196992563	821.484110690922	185.533782133095	346.188590226157	1031.905376961954	430.905933220837	572.186056500836	960.735054620943	328.083516268571	636.177539088807	1019.747125603170	231.814066118541	589.835683123905	903.959564970161	53.670039233978	564.636438418290	1070.680201797622	116.532521098276	604.726522601196	989.402202042882	43.768722048925	636.300625404301	1194.010352943605	74.319268779113	627.833937617474	671.241617031613	40.725437119722	379.330709017686	748.052123499192	36.123333289087	302.371370776161	832.211158206257	95.477673251067	332.765066520097	960.014738168781	39.335655210879	307.076271977453	1125.595834200235	1138.743719134718	108.288288069808	1379.970864809818	1089.317917176717	140.771679124750	733.177090967150	1132.358125603081	652.745546573393	710.018904509025	872.046457970539	667.190051186665	
21	13.584285714286	733.237848578769	1012.106072257200	395.019077607656	987.811356784818	1428.508266721221	262.152852030611	1033.976417349565	1356.866812454629	445.260946330464	908.959952136543	1440.004368830633	586.264362196009	926.660463174978	1491.892256868575	410.472105516120	926.704413314606	943.739780326648	566.065089360967	976.714288067124	952.162122233894	295.330760680503	995.904602658626	763.471966036133	548.597322342362	936.276018485036	646.667563906362	614.426406995215	1028.096998516264	602.149867361539	543.289148596859	1053.338567103396	519.270157564017	564.604221073193	981.970299058113	727.545106250822	332.945144447532	887.642245539939	622.529873663557	256.740013975160	944.971716251411	536.276580844140	334.537107610669	932.274365019530	467.524149078953	342.722264404521	894.029035895705	400.885907263876	330.083145794770	793.249174430006	301.134996653168	271.034824359398	815.604477577049	184.999013896566	346.583236426521	1031.400697725496	429.790049583137	575.020402864743	965.704489204111	323.125516576238	639.887459166506	1029.442900010151	229.464495046637	593.206828983103	921.676084530631	46.462313413836	569.328268944620	1086.656607151489	115.513987883892	607.585071665846	1008.368928408013	39.384417589528	639.919520189887	1212.252522815837	77.642884906096	629.239207925892	665.184609936587	40.306690551164	379.238423706130	741.997511560159	35.881086757101	302.292354908855	826.035228605649	95.368092874991	332.879711827778	953.964395605943	39.374119144618	307.160450209196	1132.186839801964	1140.616963898887	112.639749384889	1387.995821919429	1101.270953411053	146.421392006134	732.612810673913	1131.260140803791	654.926298108576	711.727719816151	870.471275319227	668.458160748322	
